PathFileType	4	(X/Y/Z)	C:/Users/opensim2020/Desktop/walking_exp_matlab/subject01_walking12_straight_02.trc																																																																																																																																		
DataRate	CameraRate	NumFrames	NumMarkers	Units	OrigDataRate	OrigDataStartFrame	OrigNumFrames																																																																																																																														
100	100	4	44	mm	100	1292	122																																																																																																																														
Frame#	Time	LFHD			RFHD			LBHD			RBHD			C7			T10			CLAV			STRN			RBAK			LSHO			LUPA			LELB			LFRM			LWRA			LWRB			LFIN			RSHO			RUPA			RELB			RFRM			RWRA			RWRB			RFIN			LASI			RASI			LPSI			RPSI			LTHI			LKNE			LTIB			LANK			LHEE			LTOE			RTHI			RKNE			RTIB			RANK			RHEE			RTOE			*39			*40			*41			*42			*43		
		X1	Y1	Z1	X2	Y2	Z2	X3	Y3	Z3	X4	Y4	Z4	X5	Y5	Z5	X6	Y6	Z6	X7	Y7	Z7	X8	Y8	Z8	X9	Y9	Z9	X10	Y10	Z10	X11	Y11	Z11	X12	Y12	Z12	X13	Y13	Z13	X14	Y14	Z14	X15	Y15	Z15	X16	Y16	Z16	X17	Y17	Z17	X18	Y18	Z18	X19	Y19	Z19	X20	Y20	Z20	X21	Y21	Z21	X22	Y22	Z22	X23	Y23	Z23	X24	Y24	Z24	X25	Y25	Z25	X26	Y26	Z26	X27	Y27	Z27	X28	Y28	Z28	X29	Y29	Z29	X30	Y30	Z30	X31	Y31	Z31	X32	Y32	Z32	X33	Y33	Z33	X34	Y34	Z34	X35	Y35	Z35	X36	Y36	Z36	X37	Y37	Z37	X38	Y38	Z38	X39	Y39	Z39	X40	Y40	Z40	X41	Y41	Z41	X42	Y42	Z42	X43	Y43	Z43	X44	Y44	Z44
																																																																																																																																					
46	0.45	-425.40903	1653.09106	-1513.56311	-406.27887	1658.77209	-1401.94434	-540.89624	1607.63208	-1499.96191	-523.56165	1612.18323	-1380.52246	-577.93597	1415.51917	-1455.74658	-614.10278	1121.40051	-1445.24548	-433.80872	1346.28882	-1457.61084	-390.49188	1192.94653	-1469.63513	-629.2735	1216.44861	-1381.89136	-496.95157	1380.12756	-1616.70166	-501.01498	1203.88379	-1713.47986	-474.32132	1052.88123	-1734.85754	-376.35907	992.71606	-1765.78894	-241.80925	959.97528	-1756.73572	-280.33218	918.50629	-1777.44202	-200.07109	901.98877	-1796.4021	-495.33511	1371.48743	-1303.34021	-585.78033	1178.78918	-1213.19421	-607.04407	1058.33704	-1213.50476	-615.63757	939.54535	-1184.08716	-575.1546	803.80627	-1203.25073	-617.51013	817.82184	-1164.72729	-606.02344	732.70728	-1167.2218	-453.63843	914.56488	-1574.40051	-418.46756	921.31714	-1359.25183	-628.85187	928.0351	-1485.99133	-603.65558	925.87781	-1343.8053	-567.89801	592.19592	-1613.60962	-617.46436	463.8588	-1597.53992	-747.24475	322.39291	-1596.52148	-873.15692	142.2077	-1539.91284	-920.91956	144.41153	-1485.82239	-768.37122	35.74111	-1536.20398	-384.02252	598.50586	-1300.07922	-333.57947	452.43201	-1332.42078	-339.75638	276.93893	-1330.46741	-300.39514	75.69427	-1376.90222	-341.18906	30.5226	-1426.8606	-157.24611	62.56748	-1378.2323	-419.59323	1691.9198	-1423.83423	-1973.05591	1023.54285	3101.9751	-2012.54858	1022.09918	3140.62622	NaN	NaN	NaN	NaN	NaN	NaN
47	0.46	-413.64752	1653.89319	-1512.00305	-394.13669	1659.54578	-1400.43921	-528.87866	1607.91699	-1498.03162	-511.1424	1612.4696	-1378.62256	-565.36169	1415.68323	-1453.48108	-600.13983	1121.27454	-1444.23511	-421.04822	1346.79065	-1455.87305	-376.93207	1193.83459	-1468.30835	-615.61212	1215.90186	-1380.22791	-484.88324	1380.34253	-1614.97717	-489.49646	1204.01709	-1711.86414	-464.06958	1052.73083	-1733.59888	-366.43237	992.13342	-1764.83008	-232.06612	958.74164	-1755.80518	-270.73599	917.59589	-1776.81213	-190.35063	900.54242	-1795.40259	-481.94193	1371.20752	-1301.43091	-571.78558	1177.8374	-1211.5083	-593.09467	1057.40161	-1212.47485	-602.12787	938.54443	-1183.40552	-562.26965	802.62524	-1203.24512	-604.53601	816.68878	-1164.58398	-593.2605	731.88434	-1167.45093	-438.73856	913.97803	-1573.42395	-404.0033	921.37659	-1358.67261	-614.427	927.65894	-1486.44702	-589.31128	925.80524	-1343.46204	-551.73474	591.19928	-1613.74146	-601.09961	462.72952	-1598.56311	-734.78711	325.05466	-1597.9115	-865.63586	148.32672	-1542.23022	-912.3324	153.62283	-1488.30164	-767.3429	35.82724	-1536.35425	-371.82159	598.79883	-1298.92639	-320.17963	453.08109	-1333.27356	-328.82352	278.41977	-1330.59277	-296.05594	75.90969	-1376.53381	-338.95184	32.00144	-1426.0116	-154.07295	56.10339	-1378.57971	-407.71161	1692.6377	-1422.37183	-1973.15393	1023.44269	3101.82251	-2012.57153	1022.02905	3140.698	NaN	NaN	NaN	NaN	NaN	NaN
48	0.47	-401.64587	1654.94678	-1510.32922	-381.69739	1660.59888	-1398.99097	-516.80243	1608.89893	-1495.93591	-498.54092	1613.48096	-1376.62622	-552.42926	1416.26868	-1451.37439	-586.13354	1121.44714	-1443.42078	-408.28076	1347.98364	-1454.32959	-363.35391	1195.16455	-1466.94189	-602.07037	1215.97974	-1378.39063	-472.86963	1380.93567	-1613.36414	-478.20624	1204.45227	-1710.05713	-454.03244	1052.93774	-1732.19592	-356.9133	991.5813	-1763.73047	-222.834	957.13434	-1754.78418	-261.83673	916.34161	-1775.85828	-181.73621	898.98242	-1794.55737	-468.61713	1371.43042	-1299.70898	-557.2934	1177.19568	-1209.68408	-578.66205	1056.6886	-1211.42639	-588.08661	937.80933	-1182.73938	-548.80524	801.8653	-1203.27759	-590.71741	815.82544	-1164.32227	-579.92017	731.1051	-1167.51514	-423.87445	913.88965	-1572.43518	-389.56586	921.83203	-1358.13599	-599.90631	927.69592	-1487.04065	-575.25116	926.55414	-1343.3385	-534.25409	590.36127	-1614.10205	-582.79254	461.52551	-1600.02576	-720.92206	328.42242	-1599.91931	-856.47943	155.29848	-1544.7627	-901.33423	163.29738	-1490.29431	-766.24866	35.67439	-1536.29565	-361.13165	598.88568	-1296.93323	-306.76666	454.74374	-1333.96631	-316.79636	279.82007	-1328.80701	-292.71515	75.53665	-1375.63477	-337.68787	33.52334	-1425.35022	-151.45149	49.01813	-1379.01941	-395.85687	1693.64319	-1420.76904	-1973.13696	1023.46997	3101.8811	-2012.56018	1022.14655	3140.74609	NaN	NaN	NaN	NaN	NaN	NaN
49	0.48	-389.59369	1655.96179	-1508.74829	-369.21664	1661.6687	-1397.53723	-504.76236	1610.15271	-1493.88623	-485.97717	1614.73779	-1374.67676	-539.45093	1416.87122	-1449.33374	-572.22546	1121.73547	-1442.65637	-395.51733	1349.35608	-1452.77832	-349.71844	1196.62427	-1465.45325	-588.61072	1216.42578	-1376.52417	-460.7756	1381.77576	-1611.8103	-467.30292	1205.10547	-1708.00879	-444.31354	1053.55615	-1730.69653	-347.85999	991.04688	-1762.37634	-214.24527	955.20209	-1753.61523	-253.67816	914.89893	-1774.77954	-173.79785	896.71375	-1793.54321	-455.41846	1371.75159	-1298.06909	-542.52942	1176.94507	-1207.8374	-563.80414	1056.34619	-1210.43469	-573.36987	937.31757	-1182.07593	-534.57629	801.45996	-1203.26599	-576.25659	815.39191	-1164.10156	-565.9353	730.8103	-1167.73328	-409.02695	914.04932	-1571.1377	-375.39337	922.80865	-1357.59033	-585.38385	928.06488	-1487.51563	-561.39319	928.1698	-1343.49182	-515.70911	589.63483	-1614.99194	-562.68555	460.47607	-1602.34534	-704.99146	331.89667	-1601.95178	-845.24945	162.5717	-1547.34985	-887.78998	173.26466	-1491.94861	-764.94244	35.80782	-1536.4491	-350.23859	599.27057	-1296.03162	-294.54266	455.53989	-1334.03735	-306.07434	280.44269	-1327.45227	-289.66177	75.22127	-1375.3103	-336.3461	34.61406	-1424.50208	-149.21664	44.18133	-1380.02063	-383.33755	1694.87732	-1419.24146	-1973.03162	1023.60413	3101.98413	-2012.46875	1021.96509	3140.58545	NaN	NaN	NaN	NaN	NaN	NaN
